<?xml version="1.0" encoding="utf-8"?>
<!-- Generator: Adobe Illustrator 15.1.0, SVG Export Plug-In . SVG Version: 6.00 Build 0)  -->
<!DOCTYPE svg PUBLIC "-//W3C//DTD SVG 1.1//EN" "http://www.w3.org/Graphics/SVG/1.1/DTD/svg11.dtd">
<svg version="1.1" id="Capa_1" xmlns="http://www.w3.org/2000/svg" xmlns:xlink="http://www.w3.org/1999/xlink" x="0px" y="0px"
	 width="30px" height="30px" viewBox="0 0 30 30" enable-background="new 0 0 30 30" xml:space="preserve">
<g>
	<g>
		<path fill="#465767" d="M15,30c8.277,0,15-6.723,15-15c0-8.277-6.723-15-15-15C6.723,0,0,6.723,0,15C0,23.277,6.723,30,15,30z
			 M15,2.169c7.066,0,12.831,5.765,12.831,12.831c0,7.066-5.765,12.831-12.831,12.831C7.934,27.831,2.169,22.066,2.169,15
			C2.169,7.934,7.934,2.169,15,2.169z"/>
		<path fill="#465767" d="M10.482,12.542c0.452,0,0.886-0.181,1.211-0.506c0.668-0.669,0.668-1.753,0-2.422
			c-0.325-0.325-0.759-0.507-1.211-0.507S9.596,9.289,9.271,9.614c-0.668,0.669-0.668,1.753,0,2.422
			C9.596,12.361,10.03,12.542,10.482,12.542z"/>
		<path fill="#465767" d="M19.084,12.542c0.452,0,0.887-0.181,1.211-0.506c0.669-0.669,0.669-1.753,0-2.422
			c-0.324-0.325-0.759-0.507-1.211-0.507c-0.451,0-0.886,0.182-1.211,0.507c-0.668,0.669-0.668,1.753,0,2.422
			C18.198,12.361,18.613,12.542,19.084,12.542z"/>
		<path fill="#465767" d="M14.729,22.5c5.583,0,7.21-3.759,7.283-3.902c0.235-0.562-0.035-1.193-0.578-1.429
			c-0.561-0.235-1.188,0.019-1.408,0.578c-0.055,0.108-1.189,2.584-5.273,2.584c-3.958,0-4.663-2.331-4.699-2.438v0.021
			l-2.115,0.521C7.988,18.598,9.018,22.5,14.729,22.5z"/>
	</g>
</g>
</svg>
