<?xml version="1.0" encoding="utf-8"?>
<!-- Generator: Adobe Illustrator 15.1.0, SVG Export Plug-In . SVG Version: 6.00 Build 0)  -->
<!DOCTYPE svg PUBLIC "-//W3C//DTD SVG 1.1//EN" "http://www.w3.org/Graphics/SVG/1.1/DTD/svg11.dtd">
<svg version="1.1" id="Layer_1" xmlns="http://www.w3.org/2000/svg" xmlns:xlink="http://www.w3.org/1999/xlink" x="0px" y="0px"
	 width="26px" height="26px" viewBox="0 0 26 26" enable-background="new 0 0 26 26" xml:space="preserve">
<g>
	<path fill="#B8BCC4" d="M8.917,11.644l6.237-6.24c0.699-0.697,1.697-0.834,2.229-0.302c0.531,0.533,0.396,1.529-0.302,2.227
		l-6.24,6.239c-0.698,0.699-1.696,0.832-2.228,0.302C8.084,13.338,8.218,12.343,8.917,11.644z"/>
	<path fill="#B8BCC4" d="M10.844,12.43l6.239,6.239c0.699,0.699,0.833,1.695,0.302,2.229c-0.531,0.531-1.529,0.396-2.229-0.303
		l-6.24-6.238c-0.698-0.695-0.832-1.693-0.3-2.229C9.148,11.6,10.146,11.732,10.844,12.43z"/>
</g>
</svg>
