<?xml version="1.0" encoding="utf-8"?>
<!-- Generator: Adobe Illustrator 15.1.0, SVG Export Plug-In . SVG Version: 6.00 Build 0)  -->
<!DOCTYPE svg PUBLIC "-//W3C//DTD SVG 1.1//EN" "http://www.w3.org/Graphics/SVG/1.1/DTD/svg11.dtd">
<svg version="1.1" id="Capa_1" xmlns="http://www.w3.org/2000/svg" xmlns:xlink="http://www.w3.org/1999/xlink" x="0px" y="0px"
	 width="30px" height="30px" viewBox="0 0 30 30" enable-background="new 0 0 30 30" xml:space="preserve">
<g>
	<g>
		<path fill="#B8BCC4" d="M20.693,8.958c0.408-0.409,0.408-1.085,0-1.513c-0.408-0.408-1.086-0.408-1.512,0L7.995,18.635
			c-1.334,1.334-1.334,3.521,0,4.855s3.521,1.334,4.855,0l11.72-11.723c0.104-0.054,0.215-0.123,0.32-0.213
			c1.563-1.564,5.729-5.729,1.727-9.729c-1.53-1.529-3.362-2.116-5.301-1.688c-1.584,0.338-3.221,1.352-4.856,2.986L3.76,15.824
			c-1.513,1.512-2.313,3.609-2.224,5.904c0.089,2.188,0.996,4.318,2.508,5.834C5.557,29.075,7.655,29.947,9.826,30
			c0.053,0,0.106,0,0.178,0c2.17,0,4.162-0.818,5.639-2.295l12.521-12.522c0.409-0.408,0.409-1.086,0-1.512
			c-0.409-0.408-1.085-0.408-1.514,0L14.13,26.193c-1.104,1.104-2.615,1.688-4.27,1.672c-1.618-0.035-3.184-0.693-4.305-1.814
			c-2.401-2.4-2.525-6.475-0.284-8.715l12.7-12.701c1.316-1.315,2.633-2.151,3.788-2.401c1.228-0.267,2.33,0.09,3.345,1.121
			c0.996,0.996,1.28,1.92,0.926,3.041c-0.25,0.802-0.815,1.689-1.776,2.758c-0.067,0.054-0.16,0.105-0.213,0.16L11.354,21.997
			c-0.498,0.498-1.334,0.498-1.832,0s-0.498-1.334,0-1.832L20.693,8.958z"/>
	</g>
</g>
</svg>
