<?xml version="1.0" encoding="utf-8"?>
<!-- Generator: Adobe Illustrator 15.1.0, SVG Export Plug-In . SVG Version: 6.00 Build 0)  -->
<!DOCTYPE svg PUBLIC "-//W3C//DTD SVG 1.1//EN" "http://www.w3.org/Graphics/SVG/1.1/DTD/svg11.dtd">
<svg version="1.1" id="Capa_1" xmlns="http://www.w3.org/2000/svg" xmlns:xlink="http://www.w3.org/1999/xlink" x="0px" y="0px"
	 width="15px" height="15px" viewBox="0 0 15 15" enable-background="new 0 0 15 15" xml:space="preserve">
<g>
	<g>
		<path fill="#B8BCC4" d="M1.066,9.109l0.699,0.316c0.291,0.139,0.426,0.469,0.32,0.77l-0.272,0.717
			c-0.204,0.553-0.136,1.145,0.204,1.619c0.33,0.484,0.873,0.766,1.455,0.766c0.213,0,0.427-0.037,0.63-0.115l0.717-0.27
			c0.068-0.029,0.136-0.039,0.213-0.039c0.233,0,0.456,0.135,0.553,0.357l0.32,0.695c0.291,0.643,0.912,1.037,1.611,1.037
			c0.697,0,1.318-0.396,1.608-1.037l0.319-0.695c0.098-0.213,0.311-0.357,0.553-0.357c0.068,0,0.146,0.01,0.213,0.039l0.717,0.281
			c0.204,0.074,0.417,0.125,0.631,0.125l0,0c0.571,0,1.114-0.301,1.455-0.775c0.329-0.484,0.406-1.076,0.203-1.629l-0.271-0.717
			c-0.104-0.303,0.029-0.631,0.32-0.768l0.698-0.32C14.602,8.82,15,8.199,15,7.5c0-0.697-0.396-1.318-1.038-1.609l-0.698-0.319
			c-0.291-0.136-0.427-0.465-0.32-0.767l0.271-0.717c0.204-0.554,0.135-1.146-0.203-1.619c-0.33-0.484-0.873-0.767-1.455-0.767
			c-0.214,0-0.428,0.039-0.631,0.115L10.209,2.09c-0.068,0.028-0.136,0.037-0.213,0.037c-0.232,0-0.456-0.135-0.553-0.357
			L9.124,1.072c-0.291-0.64-0.912-1.037-1.608-1.037c-0.699,0-1.349,0.407-1.64,1.047l-0.32,0.699
			c-0.097,0.213-0.31,0.356-0.553,0.356c-0.067,0-0.145-0.01-0.213-0.037L4.073,1.828c-0.204-0.076-0.417-0.114-0.63-0.114
			c-0.572,0-1.116,0.29-1.455,0.766C1.659,2.963,1.581,3.555,1.784,4.098l0.272,0.717c0.106,0.302-0.029,0.631-0.32,0.767
			l-0.699,0.32C0.397,6.193,0,6.813,0,7.51C0,8.209,0.427,8.818,1.066,9.109z M1.542,6.947l0.698-0.32
			C3.083,6.239,3.49,5.26,3.161,4.398L2.89,3.68c-0.097-0.263,0-0.457,0.067-0.554c0.155-0.231,0.446-0.329,0.718-0.223l0.718,0.271
			C4.596,3.251,4.8,3.291,5.013,3.291l0,0c0.689,0,1.319-0.407,1.61-1.036l0.32-0.699c0.146-0.328,0.456-0.357,0.553-0.357
			c0.097,0,0.396,0.029,0.553,0.357l0.32,0.699C8.66,2.883,9.29,3.291,9.979,3.291c0.213,0,0.418-0.039,0.621-0.116l0.717-0.271
			c0.271-0.097,0.555,0,0.72,0.223c0.065,0.097,0.165,0.291,0.065,0.554L11.83,4.398c-0.32,0.862,0.077,1.842,0.921,2.229
			l0.698,0.319c0.33,0.146,0.359,0.456,0.359,0.553s-0.029,0.397-0.359,0.553L12.751,8.37C11.907,8.759,11.5,9.736,11.83,10.6
			l0.271,0.719c0.097,0.264,0,0.455-0.067,0.555c-0.156,0.23-0.446,0.328-0.718,0.225L10.6,11.825
			c-0.205-0.078-0.408-0.117-0.621-0.117c-0.688,0-1.317,0.406-1.608,1.037l-0.32,0.698C7.904,13.773,7.594,13.8,7.497,13.8
			c-0.097,0-0.397-0.026-0.553-0.356l-0.32-0.698c-0.291-0.631-0.921-1.037-1.61-1.037c-0.213,0-0.417,0.039-0.62,0.117
			l-0.718,0.271c-0.271,0.098-0.553,0-0.718-0.224c-0.067-0.097-0.165-0.29-0.067-0.552l0.271-0.719
			c0.32-0.863-0.078-1.844-0.921-2.23L1.542,8.053C1.212,7.907,1.183,7.596,1.183,7.5S1.212,7.102,1.542,6.947z"/>
		<path fill="#B8BCC4" d="M7.485,10.02c1.386,0,2.521-1.135,2.521-2.52c0-1.386-1.135-2.521-2.521-2.521
			c-1.387,0-2.521,1.135-2.521,2.521C4.964,8.887,6.089,10.02,7.485,10.02z M7.485,6.141c0.748,0,1.357,0.61,1.357,1.357
			c0,0.748-0.611,1.359-1.357,1.359c-0.746,0-1.357-0.611-1.357-1.359C6.128,6.751,6.739,6.141,7.485,6.141z"/>
	</g>
</g>
</svg>
