<?xml version="1.0" encoding="utf-8"?>
<!-- Generator: Adobe Illustrator 16.0.0, SVG Export Plug-In . SVG Version: 6.00 Build 0)  -->
<!DOCTYPE svg PUBLIC "-//W3C//DTD SVG 1.1//EN" "http://www.w3.org/Graphics/SVG/1.1/DTD/svg11.dtd">
<svg version="1.1" id="Layer_1" xmlns="http://www.w3.org/2000/svg" xmlns:xlink="http://www.w3.org/1999/xlink" x="0px" y="0px"
	 width="20px" height="20px" viewBox="0 0 20 20" enable-background="new 0 0 20 20" xml:space="preserve">
<path fill="#B8BCC4" d="M16,9V6c0-3.313-2.686-6-6-6C6.686,0,4,2.687,4,6v3H3v8.916C3,17.916,3,20,5.078,20c0.724,0,2.745,0,4.922,0
	c2.178,0,4.198,0,4.922,0C17,20,17,17.916,17,17.916V9H16z M14,9h-4H6V6c0-2.211,1.791-4,4-4s4,1.789,4,4V9z"/>
</svg>
