<?xml version="1.0" encoding="utf-8"?>
<!-- Generator: Adobe Illustrator 15.1.0, SVG Export Plug-In . SVG Version: 6.00 Build 0)  -->
<!DOCTYPE svg PUBLIC "-//W3C//DTD SVG 1.1//EN" "http://www.w3.org/Graphics/SVG/1.1/DTD/svg11.dtd">
<svg version="1.1" id="Layer_1" xmlns="http://www.w3.org/2000/svg" xmlns:xlink="http://www.w3.org/1999/xlink" x="0px" y="0px"
	 width="26px" height="20px" viewBox="0 0 26 20" enable-background="new 0 0 26 20" xml:space="preserve">
<g>
	<g>
		<path fill="#B8BCC4" d="M0,19.857V7.136C0,3.201,3.201,0,7.135,0h11.727C22.797,0,26,3.201,26,7.136V9.33
			c0,3.936-3.201,7.137-7.137,7.137H7.301L0,19.857z M7.135,1.591c-3.058,0-5.545,2.487-5.545,5.545v10.229l5.36-2.49h11.913
			c3.059,0,5.545-2.488,5.545-5.545V7.134c0-3.057-2.488-5.544-5.547-5.544L7.135,1.591L7.135,1.591z"/>
	</g>
	<circle fill="#B8BCC4" cx="7.845" cy="8.485" r="2.224"/>
	<circle fill="#B8BCC4" cx="13.423" cy="8.485" r="2.225"/>
	<circle fill="#B8BCC4" cx="19" cy="8.485" r="2.225"/>
</g>
</svg>
