<?xml version="1.0" encoding="utf-8"?>
<!-- Generator: Adobe Illustrator 15.1.0, SVG Export Plug-In . SVG Version: 6.00 Build 0)  -->
<!DOCTYPE svg PUBLIC "-//W3C//DTD SVG 1.1//EN" "http://www.w3.org/Graphics/SVG/1.1/DTD/svg11.dtd">
<svg version="1.1" id="Layer_1" xmlns="http://www.w3.org/2000/svg" xmlns:xlink="http://www.w3.org/1999/xlink" x="0px" y="0px"
	 width="18px" height="18px" viewBox="0 0 18 18" enable-background="new 0 0 18 18" xml:space="preserve">
<g>
	<path fill="#B8BCC4" d="M6.204,10.486l4.278-4.279C10.962,5.729,11.646,5.635,12.012,6c0.364,0.365,0.271,1.049-0.207,1.528
		l-4.28,4.279c-0.479,0.479-1.163,0.571-1.528,0.207C5.633,11.648,5.725,10.966,6.204,10.486z"/>
	<path fill="#B8BCC4" d="M7.517,6.192l4.279,4.279c0.479,0.479,0.571,1.163,0.207,1.528s-1.049,0.272-1.528-0.207l-4.28-4.278
		C5.716,7.036,5.624,6.352,5.989,5.985C6.354,5.622,7.038,5.713,7.517,6.192z"/>
</g>
</svg>
