<?xml version="1.0" encoding="utf-8"?>
<!-- Generator: Adobe Illustrator 15.1.0, SVG Export Plug-In . SVG Version: 6.00 Build 0)  -->
<!DOCTYPE svg PUBLIC "-//W3C//DTD SVG 1.1//EN" "http://www.w3.org/Graphics/SVG/1.1/DTD/svg11.dtd">
<svg version="1.1" id="Layer_1" xmlns="http://www.w3.org/2000/svg" xmlns:xlink="http://www.w3.org/1999/xlink" x="0px" y="0px"
	 width="18px" height="18px" viewBox="0 0 18 18" enable-background="new 0 0 18 18" xml:space="preserve">
<g>
	<path fill="#A6A6A6" d="M13.769,6.254l-0.866-0.868c-0.12-0.118-0.265-0.179-0.435-0.179s-0.317,0.061-0.435,0.179L7.844,9.581
		L5.967,7.697C5.849,7.579,5.703,7.519,5.533,7.519c-0.17,0-0.315,0.06-0.434,0.178L4.231,8.565c-0.12,0.12-0.179,0.265-0.179,0.436
		c0,0.169,0.06,0.314,0.179,0.434l2.311,2.312l0.868,0.867c0.121,0.12,0.266,0.18,0.435,0.18c0.171,0,0.316-0.06,0.434-0.18
		l0.87-0.867l4.621-4.624c0.119-0.119,0.18-0.263,0.18-0.433C13.948,6.519,13.888,6.375,13.769,6.254z"/>
</g>
</svg>
