<?xml version="1.0" encoding="utf-8"?>
<!-- Generator: Adobe Illustrator 15.1.0, SVG Export Plug-In . SVG Version: 6.00 Build 0)  -->
<!DOCTYPE svg PUBLIC "-//W3C//DTD SVG 1.1//EN" "http://www.w3.org/Graphics/SVG/1.1/DTD/svg11.dtd">
<svg version="1.1" id="Layer_1" xmlns="http://www.w3.org/2000/svg" xmlns:xlink="http://www.w3.org/1999/xlink" x="0px" y="0px"
	 width="26px" height="26px" viewBox="0 0 26 26" enable-background="new 0 0 26 26" xml:space="preserve">
<g>
	<path fill="#A7A6A6" d="M17.083,14.356l-6.237,6.24c-0.699,0.696-1.697,0.834-2.23,0.302c-0.531-0.533-0.396-1.529,0.302-2.228
		l6.24-6.24c0.698-0.698,1.696-0.832,2.228-0.301C17.916,12.662,17.782,13.657,17.083,14.356z"/>
	<path fill="#A7A6A6" d="M15.156,13.57L8.917,7.331C8.218,6.632,8.084,5.636,8.615,5.103c0.531-0.532,1.529-0.397,2.229,0.302
		l6.24,6.238c0.698,0.696,0.832,1.694,0.301,2.229C16.852,14.4,15.854,14.269,15.156,13.57z"/>
</g>
</svg>
