<?xml version="1.0" encoding="utf-8"?>
<!-- Generator: Adobe Illustrator 15.1.0, SVG Export Plug-In . SVG Version: 6.00 Build 0)  -->
<!DOCTYPE svg PUBLIC "-//W3C//DTD SVG 1.1//EN" "http://www.w3.org/Graphics/SVG/1.1/DTD/svg11.dtd">
<svg version="1.1" id="Capa_1" xmlns="http://www.w3.org/2000/svg" xmlns:xlink="http://www.w3.org/1999/xlink" x="0px" y="0px"
	 width="30px" height="30px" viewBox="0 0 30 30" enable-background="new 0 0 30 30" xml:space="preserve">
<g>
	<g>
		<path fill="#A6A6A6" d="M30,3.476c0-0.604-0.494-1.099-1.098-1.099H1.098C0.494,2.377,0,2.872,0,3.476v23.049
			c0,0.604,0.494,1.098,1.098,1.098h27.805c0.604,0,1.098-0.494,1.098-1.098V3.476L30,3.476z M27.805,4.573v14.048l-6.439-4.518
			c-0.438-0.293-1.006-0.258-1.371,0.109l-3.348,3.219l-6.951-6.713c-0.22-0.22-0.531-0.33-0.842-0.312
			c-0.311,0.018-0.604,0.183-0.786,0.421l-5.854,7.518V4.573H27.805z M2.194,25.426v-3.512l6.841-8.762l6.841,6.604
			c0.42,0.402,1.098,0.402,1.52,0l3.438-3.33l6.971,4.887v4.113H2.194z"/>
		<path fill="#A6A6A6" d="M17.689,12.915c1.17,0,2.121-0.951,2.121-2.123c0-1.17-0.951-2.121-2.121-2.121
			c-1.172,0-2.123,0.951-2.123,2.121C15.566,11.963,16.518,12.915,17.689,12.915z"/>
	</g>
</g>
</svg>
