<?xml version="1.0" encoding="utf-8"?>
<!-- Generator: Adobe Illustrator 16.0.0, SVG Export Plug-In . SVG Version: 6.00 Build 0)  -->
<!DOCTYPE svg PUBLIC "-//W3C//DTD SVG 1.1//EN" "http://www.w3.org/Graphics/SVG/1.1/DTD/svg11.dtd">
<svg version="1.1" id="Layer_1" xmlns="http://www.w3.org/2000/svg" xmlns:xlink="http://www.w3.org/1999/xlink" x="0px" y="0px"
	 width="20px" height="20px" viewBox="0 0 20 20" enable-background="new 0 0 20 20" xml:space="preserve">
<path fill="#999999" d="M16,9.001v-3c0-3.313-2.687-6-6-6s-6,2.687-6,6h2c0-2.211,1.791-4,4-4c2.209,0,4,1.789,4,4v3h-4H6.604H6H4H3
	v8.914c0,0,0,2.084,2.078,2.084c0.724,0,2.745,0,4.922,0c2.177,0,4.197,0,4.922,0C17,19.999,17,17.915,17,17.915V9.001H16z"/>
</svg>
