<?xml version="1.0" encoding="utf-8"?>
<!-- Generator: Adobe Illustrator 15.1.0, SVG Export Plug-In . SVG Version: 6.00 Build 0)  -->
<!DOCTYPE svg PUBLIC "-//W3C//DTD SVG 1.1//EN" "http://www.w3.org/Graphics/SVG/1.1/DTD/svg11.dtd">
<svg version="1.1" id="Layer_1" xmlns="http://www.w3.org/2000/svg" xmlns:xlink="http://www.w3.org/1999/xlink" x="0px" y="0px"
	 width="14px" height="14px" viewBox="-40.5 59.5 14 14" enable-background="new -40.5 59.5 14 14" xml:space="preserve">
<g>
	<g>
		<path fill="#A6A6A6" d="M-30.001,64.75c0-2.899-2.351-5.25-5.25-5.25s-5.249,2.351-5.249,5.25c0,2.9,2.35,5.25,5.249,5.25
			S-30.001,67.65-30.001,64.75z M-35.251,68.688c-2.171,0-3.937-1.766-3.937-3.938s1.765-3.937,3.937-3.937s3.938,1.765,3.938,3.937
			S-33.08,68.688-35.251,68.688z"/>
		<path fill="#A6A6A6" d="M-26.885,71.26l-3.213-3.211c-0.479,0.744-1.112,1.377-1.855,1.855l3.211,3.213
			c0.514,0.51,1.345,0.51,1.856,0C-26.374,72.604-26.374,71.773-26.885,71.26z"/>
	</g>
</g>
</svg>
