<?xml version="1.0" encoding="utf-8"?>
<!-- Generator: Adobe Illustrator 15.1.0, SVG Export Plug-In . SVG Version: 6.00 Build 0)  -->
<!DOCTYPE svg PUBLIC "-//W3C//DTD SVG 1.1//EN" "http://www.w3.org/Graphics/SVG/1.1/DTD/svg11.dtd">
<svg version="1.1" id="Layer_1" xmlns="http://www.w3.org/2000/svg" xmlns:xlink="http://www.w3.org/1999/xlink" x="0px" y="0px"
	 width="100px" height="100px" viewBox="0 0 100 100" enable-background="new 0 0 100 100" xml:space="preserve">
<g>
	<path fill-rule="evenodd" clip-rule="evenodd" fill="#CC2227" d="M1.245,20c0,0-1.725-0.413-1.114-2.192
		c0.018,0,3.108-5.409,3.108-5.409l3.27-5.715l3.414-5.967c0,0,0.665-0.809,1.294-0.701c0.018,0.018,0.305-0.144,0.97,0.27
		c0,0.054,0.521,0.413,0.7,0.988c0,0.018,4.079,7.099,4.079,7.099l4.923,8.518l0.539,0.917c0,0,0.341,0.701-0.144,1.528
		c0,0-0.413,0.683-1.24,0.611c0,0.036-9.99,0-9.99,0L1.245,20z"/>
	<path fill="#FFFFFF" d="M10.456,12.911h1.747L12.5,6.449h-2.329L10.456,12.911z M12.374,15.487v-1.72h-2.329v1.72H12.374z"/>
</g>
<g>
	<path fill-rule="evenodd" clip-rule="evenodd" fill="#7292CB" d="M31.245,20c0,0-1.725-0.413-1.114-2.192
		c0.018,0,3.108-5.409,3.108-5.409l3.27-5.715l3.414-5.967c0,0,0.665-0.809,1.294-0.701c0.018,0.018,0.305-0.144,0.97,0.27
		c0,0.054,0.521,0.413,0.701,0.988c0,0.018,4.079,7.099,4.079,7.099l4.923,8.518l0.539,0.917c0,0,0.342,0.701-0.144,1.528
		c0,0-0.413,0.683-1.24,0.611c0,0.036-9.99,0-9.99,0L31.245,20z"/>
	<path fill="#FFFFFF" d="M40.456,12.911h1.747L42.5,6.449h-2.329L40.456,12.911z M42.374,15.487v-1.72h-2.329v1.72H42.374z"/>
</g>
</svg>
